Coordinates
version=1
nRows=27
nColumns=12
inDegrees=yes

Units are S.I. units (second, meters, Newtons, ...)
Angles are in degrees

endheader
time	SC_y	SC_z	SC_x	AC_y	AC_z	AC_x	GH_y	GH_z	GH_yy	EL_x	PS_y
       0.0              -52.49          27.97          9.549          63.45         -15.44         -1.615         -152.0          83.21         -119.4          101.6          59.55
   0.03672              -52.49          27.96          9.552          63.45         -15.44         -1.615         -151.9           83.2         -119.4          101.6          59.55
   0.07343              -52.48          27.96          9.555          63.45         -15.44         -1.615         -151.9          83.19         -119.4          101.6          59.56
    0.1101              -52.48          27.96          9.558          63.45         -15.44         -1.615         -151.9          83.18         -119.4          101.6          59.56
    0.1469              -52.47          27.96          9.562          63.45         -15.43         -1.615         -151.9          83.17         -119.4          101.6          59.56
    0.1836              -52.47          27.96          9.566          63.45         -15.43         -1.614         -151.9          83.16         -119.4          101.6          59.57
    0.2203              -52.46          27.96           9.57          63.45         -15.43         -1.614         -151.8          83.15         -119.4          101.6          59.57
     0.257              -52.46          27.95          9.574          63.45         -15.43         -1.614         -151.8          83.14         -119.4          101.6          59.58
    0.2937              -52.45          27.95          9.578          63.45         -15.42         -1.614         -151.8          83.13         -119.5          101.6          59.58
    0.3304              -52.44          27.95          9.583          63.45         -15.42         -1.613         -151.8          83.12         -119.5          101.6          59.59
    0.3672              -52.44          27.95          9.589          63.45         -15.42         -1.613         -151.7           83.1         -119.5          101.6          59.59
    0.4039              -52.43          27.94          9.594          63.45         -15.41         -1.613         -151.7          83.09         -119.5          101.6           59.6
    0.4406              -52.42          27.94            9.6          63.45         -15.41         -1.612         -151.7          83.07         -119.5          101.6          59.61
    0.4773              -52.41          27.94          9.607          63.44          -15.4         -1.612         -151.6          83.05         -119.5          101.6          59.61
     0.514               -52.4          27.93          9.614          63.44          -15.4         -1.611         -151.6          83.03         -119.6          101.6          59.62
    0.5507              -52.39          27.93          9.622          63.44         -15.39         -1.611         -151.5          83.01         -119.6          101.6          59.63
    0.5875              -52.38          27.93           9.63          63.44         -15.39          -1.61         -151.5          82.99         -119.6          101.6          59.64
    0.6242              -52.37          27.92          9.639          63.44         -15.38          -1.61         -151.4          82.97         -119.6          101.6          59.65
    0.6609              -52.36          27.92          9.649          63.44         -15.37         -1.609         -151.4          82.94         -119.7          101.6          59.66
    0.6976              -52.34          27.91           9.66          63.44         -15.36         -1.609         -151.3          82.91         -119.7          101.6          59.67
    0.7343              -52.32          27.91          9.672          63.43         -15.36         -1.608         -151.2          82.88         -119.7          101.6          59.69
     0.771              -52.31           27.9          9.685          63.43         -15.35         -1.607         -151.1          82.84         -119.8          101.6           59.7
    0.8077              -52.29          27.89            9.7          63.43         -15.34         -1.606         -151.1          82.81         -119.8          101.5          59.72
    0.8445              -52.26          27.88          9.716          63.43         -15.32         -1.605         -151.0          82.76         -119.9          101.5          59.74
    0.8812              -52.24          27.88          9.734          63.42         -15.31         -1.604         -150.9          82.72         -119.9          101.5          59.76
    0.9179              -52.21          27.87          9.754          63.42          -15.3         -1.603         -150.7          82.66         -120.0          101.5          59.78
    0.9546              -52.18          27.86          9.776          63.42         -15.28         -1.602         -150.6           82.6         -120.0          101.5           59.8
